<?xml version="1.0" encoding="UTF-8" standalone="no"?>
<!DOCTYPE svg PUBLIC "-//W3C//DTD SVG 1.1//EN" "http://www.w3.org/Graphics/SVG/1.1/DTD/svg11.dtd">
<svg width="100%" height="100%" viewBox="0 0 6612 3639" version="1.1" xmlns="http://www.w3.org/2000/svg" xmlns:xlink="http://www.w3.org/1999/xlink" xml:space="preserve" xmlns:serif="http://www.serif.com/" style="fill-rule:evenodd;clip-rule:evenodd;stroke-linejoin:round;stroke-miterlimit:1.41421;">
    <g id="Layer_x0020_1">
        <path d="M4388,3019.45C4527.9,3019.45 4641.3,3132.85 4641.3,3272.75C4641.3,3412.65 4527.9,3526.05 4388,3526.05C4248.2,3526.05 4134.8,3412.65 4134.8,3272.75C4134.8,3132.85 4248.2,3019.45 4388,3019.45ZM2220.7,3019.45C2360.6,3019.45 2474,3132.85 2474,3272.75C2474,3412.65 2360.6,3526.05 2220.7,3526.05C2080.9,3526.05 1967.5,3412.65 1967.5,3272.75C1967.5,3132.85 2080.9,3019.45 2220.7,3019.45ZM2945.7,3095.45C3085.6,3095.45 3198.9,3208.85 3198.9,3348.75C3198.9,3488.65 3085.6,3602.05 2945.7,3602.05C2805.8,3602.05 2692.4,3488.65 2692.4,3348.75C2692.4,3208.85 2805.8,3095.45 2945.7,3095.45ZM3666.2,3096.65C3806.1,3096.65 3919.4,3210.05 3919.4,3349.95C3919.4,3489.85 3806.1,3603.25 3666.2,3603.25C3526.3,3603.25 3412.9,3489.85 3412.9,3349.95C3412.9,3210.05 3526.3,3096.65 3666.2,3096.65Z" style="fill:rgb(254,254,254);"/>
        <g id="_1314454496">
            <g id="_980292032">
                <g>
                    <path id="path14" d="M6487.3,124.95L124.7,124.95L124.7,1517.95C124.7,1861.95 415.9,2389.75 1106.8,2776.95C1333.3,2904.45 1602.7,3015.95 1918,3100.65C1933.6,3072.85 1953,3046.85 1976.1,3024.05C2041.7,2958.15 2130.2,2921.55 2223.3,2921.55C2316.4,2921.55 2404.8,2958.15 2470.4,3024.05C2525.4,3078.75 2559.8,3149.65 2569.8,3225.65C2585.4,3227.55 2600.7,3229.35 2616.4,3231.25C2633.6,3183.45 2661.4,3139.65 2697.9,3102.85C2763.5,3037.25 2852,3000.65 2945.1,3000.65C3038.2,3000.65 3126.6,3037.25 3192.3,3102.85C3238.5,3149.05 3270.4,3206.85 3285.4,3269.35L3326.6,3269.35C3341.6,3206.85 3373.5,3149.35 3419.7,3102.85C3485.4,3037.25 3573.8,3000.65 3666.9,3000.65C3760,3000.65 3848.5,3037.25 3914.1,3102.85C3951.3,3140.35 3979.4,3184.65 3996.6,3233.45C4011.9,3231.55 4027.2,3230.05 4042.2,3228.15C4052.5,3152.85 4087.2,3082.55 4141.6,3028.15C4207.2,2962.55 4295.9,2925.65 4388.7,2925.65C4481.8,2925.65 4570.3,2962.55 4635.9,3028.15C4659,3051.25 4678.7,3077.55 4694.3,3105.65C5015.2,3020.65 5287.7,2907.55 5516.5,2778.45C6202.7,2391.35 6487.3,1863.55 6487.3,1517.95L6487.3,124.95Z" style="fill:rgb(9,124,8);stroke:rgb(255,253,253);stroke-width:20px;"/>
                    <g>
                        <path d="M4388.7,2986.55C4468.4,2986.55 4540.6,3018.75 4592.8,3071.25C4621.5,3099.75 4644.3,3134.65 4658.7,3173.15C5006.5,3085.95 5299.9,2966.25 5543.6,2828.15C6250.5,2429.75 6543.3,1879.45 6543.3,1517.95L6543.3,123.35C6543.3,108.95 6538.6,94.65 6527.3,84.95C6517.6,73.65 6503.3,68.95 6488.9,68.95L123.1,68.95C108.7,68.95 94.4,73.65 84.7,84.95C73.4,94.65 68.7,108.95 68.7,123.35L68.7,1517.95C68.7,1877.95 367.8,2428.15 1079.6,2826.25C1322.1,2962.25 1612.1,3080.65 1953.6,3167.85C1968.3,3129.65 1990.8,3095.35 2019.2,3066.85C2071.4,3014.75 2143.6,2982.55 2223.3,2982.55C2303,2982.55 2375.1,3014.75 2427.3,3066.85C2479.5,3119.35 2512,3191.55 2512,3271.25L2512,3274.65C2561.1,3281.25 2611.4,3287.15 2662.3,3292.45C2673.5,3235.95 2701.7,3185.35 2741,3145.95C2793.2,3093.75 2865.4,3061.25 2945.1,3061.25C3024.8,3061.25 3097,3093.75 3149.1,3145.95C3196,3192.55 3226.6,3255.35 3232.6,3324.95C3260.7,3325.35 3288.8,3325.35 3317.3,3325.35C3337.9,3325.35 3358.8,3325.35 3379.4,3325.35C3385.4,3255.35 3416,3192.85 3462.9,3145.95C3515,3093.75 3587.2,3061.25 3666.9,3061.25C3746.6,3061.25 3818.8,3093.75 3871,3145.95C3911,3185.95 3939.1,3237.15 3950.3,3294.65C4000.9,3289.65 4050.9,3284.05 4100,3277.55L4100,3275.35C4100,3195.65 4132.5,3123.45 4184.7,3071.25C4236.9,3018.75 4309,2986.55 4388.7,2986.55ZM4675.3,3239.35C4676.5,3251.25 4677.5,3263.15 4677.5,3275.35C4677.5,3354.95 4645,3427.15 4592.8,3479.35C4540.6,3531.55 4468.4,3564.05 4388.7,3564.05C4309,3564.05 4236.9,3531.55 4184.7,3479.35C4148.1,3443.15 4121.6,3397.15 4108.8,3345.65C4058.4,3352.15 4007.2,3358.15 3955.3,3363.15C3951.9,3437.85 3920.3,3504.95 3871,3554.35C3818.8,3606.55 3746.6,3638.75 3666.9,3638.75C3587.2,3638.75 3515,3606.55 3462.9,3554.35C3420.4,3511.85 3391,3455.95 3381.6,3394.05C3360.4,3394.05 3338.8,3394.35 3317.2,3394.35C3288.2,3394.35 3259.1,3394.05 3230.4,3393.75C3221,3455.95 3191.6,3511.55 3149.1,3554.35C3097,3606.55 3024.8,3638.75 2945.1,3638.75C2865.4,3638.75 2793.2,3606.55 2741,3554.35C2691,3504.35 2659.5,3436.25 2656.7,3360.95C2604.5,3355.65 2553.2,3349.35 2502.9,3342.85C2489.8,3393.75 2463.3,3439.35 2427.3,3475.25C2375.1,3527.45 2303,3559.65 2223.3,3559.65C2143.6,3559.65 2071.4,3527.45 2019.2,3475.25C1967,3423.15 1934.5,3350.95 1934.5,3271.25C1934.5,3258.75 1935.5,3246.55 1937,3234.35C1588.9,3145.65 1293.7,3024.75 1046.2,2885.65C310.3,2472.85 0,1897.25 0,1517.95L0,123.35C0,89.95 14.4,59.35 36.9,37.15C59.1,14.65 89.7,0.25 123.1,0.25L6488.9,0.25C6522.3,0.25 6552.9,14.65 6575.1,37.15C6597.6,59.35 6612,89.95 6612,123.35L6612,1517.95C6612,1897.25 6308,2474.45 5577.1,2887.25C5328.3,3028.15 5029.3,3150.35 4675.3,3239.35ZM2223.3,3050.95C1933.6,3050.95 1933.6,3491.25 2223.3,3491.25C2512.9,3491.25 2512.9,3050.95 2223.3,3050.95ZM3100.7,3194.35C3061,3154.65 3005.7,3130.05 2945.1,3130.05C2884.5,3130.05 2829.2,3154.65 2789.5,3194.35C2749.8,3234.35 2725.1,3289.35 2725.1,3349.95C2725.1,3410.95 2749.8,3465.95 2789.5,3505.65C2829.2,3545.65 2884.5,3569.95 2945.1,3569.95C3005.7,3569.95 3061,3545.65 3100.7,3505.65C3140.4,3465.95 3165.1,3410.95 3165.1,3349.95C3165.1,3289.35 3140.4,3234.35 3100.7,3194.35ZM3822.5,3194.35C3782.8,3154.65 3727.5,3130.05 3666.9,3130.05C3606.3,3130.05 3551,3154.65 3511.3,3194.35C3471.6,3234.35 3446.9,3289.35 3446.9,3349.95C3446.9,3410.95 3471.6,3465.95 3511.3,3505.65C3551,3545.65 3606.3,3569.95 3666.9,3569.95C3727.5,3569.95 3782.8,3545.65 3822.5,3505.65C3862.2,3465.95 3886.9,3410.95 3886.9,3349.95C3886.9,3289.35 3862.2,3234.35 3822.5,3194.35ZM4544.3,3119.65C4504.7,3080.05 4449.4,3055.35 4388.7,3055.35C4328.1,3055.35 4272.8,3080.05 4233.1,3119.65C4193.4,3159.35 4168.7,3214.35 4168.7,3275.35C4168.7,3335.95 4193.4,3390.95 4233.1,3430.95C4272.8,3470.65 4328.1,3495.25 4388.7,3495.25C4449.4,3495.25 4504.7,3470.65 4544.3,3430.95C4584,3390.95 4608.7,3335.95 4608.7,3275.35C4608.7,3214.35 4584,3159.35 4544.3,3119.65Z" style="fill:rgb(209,128,88);fill-rule:nonzero;stroke:rgb(255,253,253);stroke-width:20px;"/>
                    </g>
                </g>
            </g>
            <g transform="matrix(0.261289,0.109453,-0.371191,0.886118,2008.38,-200.358)">
                <rect x="2566.67" y="2208.38" width="1672.44" height="627.75" style="fill:none;stroke:rgb(255,253,253);stroke-width:70.6px;stroke-linecap:round;stroke-miterlimit:1.5;"/>
            </g>
            <g transform="matrix(0.283288,0,0,0.960723,2342,135.395)">
                <rect x="2566.67" y="2208.38" width="1672.44" height="627.75" style="fill:none;stroke:rgb(255,253,253);stroke-width:70.6px;stroke-linecap:round;stroke-miterlimit:1.5;"/>
            </g>
            <g transform="matrix(1.66252,0.0142789,-0.0160022,1.86316,-2238.88,-432.079)">
                <text x="2267.02px" y="1026.26px" style="font-family:'Phosphate-Inline', 'Phosphate';font-size:216.78px;fill:rgb(255,18,0);">BL<tspan x="2491.82px 2617.76px 2750.87px 2893.94px 2972.85px 3098.8px 3231.9px " y="1026.26px 1026.26px 1026.26px 1026.26px 1026.26px 1026.26px 1026.26px ">ACKJACK</tspan></text>
                <text x="3412.91px" y="1026.26px" style="font-family:'Phosphate-Inline', 'Phosphate';font-size:216.78px;fill:rgb(255,18,0);">P<tspan x="3518.92px 3627.53px 3753.69px " y="1026.26px 1026.26px 1026.26px ">AYS</tspan></text>
                <text x="3894.6px" y="1026.26px" style="font-family:'Phosphate-Inline', 'Phosphate';font-size:216.78px;fill:rgb(255,18,0);">3 T<tspan x="4119.4px 4279.82px " y="1026.26px 1026.26px ">O </tspan>2</text>
            </g>
            <g transform="matrix(1,0,0,1,-568.061,349.938)">
                <text x="1951.77px" y="806.785px" style="font-family:'Phosphate-Inline', 'Phosphate';font-size:216.78px;fill:rgb(4,3,3);">Dealer MU<tspan x="2989.71px 3077.5px 3178.52px " y="806.785px 806.785px 806.785px ">ST </tspan>DR<tspan x="3495.67px 3609.7px 3797.43px 3840.78px 3935.3px 4095.72px " y="806.785px 806.785px 806.785px 806.785px 806.785px 806.785px ">AW TO </tspan>16 AND S<tspan x="4911.68px 4996.44px 5105.05px 5232.3px " y="806.785px 806.785px 806.785px 806.785px ">TAY </tspan>ON 17</text>
            </g>
        </g>
        <g transform="matrix(0.257985,-0.117028,0.396881,0.874914,3756.23,97.9673)">
            <rect x="2566.67" y="2208.38" width="1672.44" height="627.75" style="fill:none;stroke:rgb(255,253,253);stroke-width:70.6px;stroke-linecap:round;stroke-miterlimit:1.5;"/>
        </g>
        <g transform="matrix(0.746588,0,0,0.746588,452.488,390.922)">
            <text x="1746.17px" y="1899.88px" style="font-family:'Phosphate-Inline', 'Phosphate';font-size:424.475px;fill:rgb(4,3,3);stroke:black;stroke-width:1.34px;">Insurance Pa<tspan x="4374.52px 4623.69px " y="1899.88px 1899.88px ">ys</tspan> 2 to 1</text>
        </g>
        <g transform="matrix(1.77093,0,0,2.64441,-1595.92,-5286.88)">
            <text x="2082.77px" y="3286.67px" style="font-family:'Phosphate-Solid', 'Phosphate';font-size:129.638px;fill:rgb(0,106,247);stroke:black;stroke-width:0.44px;">2x</text>
        </g>
        <g transform="matrix(0.849794,0,0,1.33891,538.505,-1071.05)">
            <text x="2655.11px" y="3386.74px" style="font-family:'Phosphate-Solid', 'Phosphate';font-size:250.469px;fill:rgb(0,106,247);stroke:black;stroke-width:0.89px;">HIT</text>
        </g>
        <g transform="matrix(0.496606,0,0,0.90938,1781.63,289.479)">
            <text x="3468.02px" y="3490.49px" style="font-family:'Phosphate-Solid', 'Phosphate';font-size:353.636px;fill:rgb(0,106,247);stroke:black;stroke-width:1.36px;">S<tspan x="3611.24px 3749.51px 3926.68px " y="3490.49px 3490.49px 3490.49px ">TAY</tspan></text>
        </g>
        <g transform="matrix(0.452856,0,0,0.969435,2310.74,74.7886)">
            <text x="4207.02px" y="3440.78px" style="font-family:'Phosphate-Solid', 'Phosphate';font-size:353.636px;fill:rgb(0,106,247);stroke:black;stroke-width:1.32px;">SPLIT</text>
        </g>
        <g transform="matrix(0.283288,0,0,0.960723,2342,-1844.42)">
            <rect x="2566.67" y="2208.38" width="1672.44" height="627.75" style="fill:none;stroke:rgb(255,253,253);stroke-width:70.6px;stroke-linecap:round;stroke-miterlimit:1.5;"/>
        </g>
        <g transform="matrix(0.264097,-0.102492,0.347584,0.895642,2885.77,491.596)">
            <rect x="2566.67" y="2208.38" width="1672.44" height="627.75" style="fill:none;stroke:rgb(255,253,253);stroke-width:70.6px;stroke-linecap:round;stroke-miterlimit:1.5;"/>
        </g>
        <g transform="matrix(0.253258,0.126935,-0.430477,0.858882,1185.59,-680.993)">
            <rect x="2566.67" y="2208.38" width="1672.44" height="627.75" style="fill:none;stroke:rgb(255,253,253);stroke-width:70.6px;stroke-linecap:round;stroke-miterlimit:1.5;"/>
        </g>
    </g>
</svg>
