<?xml version="1.0" encoding="UTF-8" standalone="no"?>
<!DOCTYPE svg PUBLIC "-//W3C//DTD SVG 1.1//EN" "http://www.w3.org/Graphics/SVG/1.1/DTD/svg11.dtd">
<svg width="100%" height="100%" viewBox="0 0 6612 3639" version="1.1" xmlns="http://www.w3.org/2000/svg" xmlns:xlink="http://www.w3.org/1999/xlink" xml:space="preserve" xmlns:serif="http://www.serif.com/" style="fill-rule:evenodd;clip-rule:evenodd;stroke-linejoin:round;stroke-miterlimit:1.41421;">
    <g id="Layer_x0020_1">
        <g id="_1314454496">
            <g id="_980292032">
                <g>
                    <path id="path14" d="M6487.3,124.95L124.7,124.95L124.7,1517.95C124.7,1861.95 415.9,2389.75 1106.8,2776.95C1333.3,2904.45 1615.84,3035.57 1935.18,3103.5C2270.91,3174.91 2386.24,3200.93 2615.02,3227.13C2887.62,3258.34 2939.57,3270.97 3319.29,3269.63C3319.68,3269.63 3617.28,3282.55 4016.4,3237.98C4221.72,3215.05 4454.19,3157.88 4694.3,3105.65C5015.2,3020.65 5287.7,2907.55 5516.5,2778.45C6202.7,2391.35 6487.3,1863.55 6487.3,1517.95L6487.3,124.95Z" style="fill:rgb(9,124,8);stroke:rgb(255,253,253);stroke-width:20px;"/>
                    <g>
                        <path d="M4100,3277.55C4100,3277.55 4384.06,3239.93 4637.31,3173.15C4756.1,3141.83 5167.27,3040.25 5543.6,2828.15C6250.5,2429.75 6543.3,1879.45 6543.3,1517.95L6543.3,123.35C6543.3,108.95 6538.6,94.65 6527.3,84.95C6517.6,73.65 6503.3,68.95 6488.9,68.95L123.1,68.95C108.7,68.95 94.4,73.65 84.7,84.95C73.4,94.65 68.7,108.95 68.7,123.35L68.7,1517.95C68.7,1877.95 367.8,2428.15 1079.6,2826.25C1322.1,2962.25 1612.1,3080.65 1953.6,3167.85C2174.03,3215.71 2175.25,3216.05 2512,3271.25C2561.1,3277.85 2955.2,3321 3232.6,3324.95C3260.7,3325.35 3358.8,3325.39 3379.4,3325.35C3740.27,3324.58 3944.73,3296.15 4100,3277.55ZM4636.36,3239.35C4374.51,3305.18 4296.23,3318.66 4104.32,3343.78C3943.61,3364.82 3688.92,3387.23 3381.6,3394.05C3360.41,3394.52 3259.1,3394.05 3230.4,3393.75C2928.88,3390.6 2552.93,3351.19 2502.9,3342.85C2227.33,3296.9 2224.53,3298.06 1937,3234.35C1588.9,3145.65 1293.7,3024.75 1046.2,2885.65C310.3,2472.85 0,1897.25 0,1517.95L0,123.35C0,89.95 14.4,59.35 36.9,37.15C59.1,14.65 89.7,0.25 123.1,0.25L6488.9,0.25C6522.3,0.25 6552.9,14.65 6575.1,37.15C6597.6,59.35 6612,89.95 6612,123.35L6612,1517.95C6612,1897.25 6308,2474.45 5577.1,2887.25C5328.3,3028.15 4990.36,3150.35 4636.36,3239.35Z" style="fill:rgb(209,128,88);fill-rule:nonzero;stroke:rgb(255,253,253);stroke-width:20px;"/>
                    </g>
                </g>
            </g>
            <g transform="matrix(0.261289,0.109453,-0.371191,0.886118,2008.38,-200.358)">
                <rect x="2566.67" y="2208.38" width="1672.44" height="627.75" style="fill:none;stroke:rgb(255,253,253);stroke-width:70.6px;stroke-linecap:round;stroke-miterlimit:1.5;"/>
            </g>
            <g transform="matrix(0.283288,0,0,0.960723,2342,135.395)">
                <rect x="2566.67" y="2208.38" width="1672.44" height="627.75" style="fill:none;stroke:rgb(255,253,253);stroke-width:70.6px;stroke-linecap:round;stroke-miterlimit:1.5;"/>
            </g>
            <g transform="matrix(1.66252,0.0142789,-0.0160022,1.86316,-2238.88,-432.079)">
                <text x="2267.02px" y="1026.26px" style="font-family:'Phosphate-Inline', 'Phosphate';font-size:216.78px;fill:rgb(255,18,0);">BL<tspan x="2491.82px 2617.76px 2750.87px 2893.94px 2972.85px 3098.8px 3231.9px " y="1026.26px 1026.26px 1026.26px 1026.26px 1026.26px 1026.26px 1026.26px ">ACKJACK</tspan></text>
                <text x="3412.91px" y="1026.26px" style="font-family:'Phosphate-Inline', 'Phosphate';font-size:216.78px;fill:rgb(255,18,0);">P<tspan x="3518.92px 3627.53px 3753.69px " y="1026.26px 1026.26px 1026.26px ">AYS</tspan></text>
                <text x="3894.6px" y="1026.26px" style="font-family:'Phosphate-Inline', 'Phosphate';font-size:216.78px;fill:rgb(255,18,0);">3 T<tspan x="4119.4px 4279.82px " y="1026.26px 1026.26px ">O </tspan>2</text>
            </g>
            <g transform="matrix(1,0,0,1,-591.907,349.938)">
                <text x="1951.77px" y="806.785px" style="font-family:'Phosphate-Inline', 'Phosphate';font-size:216.78px;fill:rgb(4,3,3);">Dealer MU<tspan x="2989.71px 3077.5px 3178.52px " y="806.785px 806.785px 806.785px ">ST </tspan>DR<tspan x="3495.67px 3609.7px 3797.43px 3840.78px 3935.3px 4095.72px " y="806.785px 806.785px 806.785px 806.785px 806.785px 806.785px ">AW TO </tspan>17 AND hit soft 17</text>
            </g>
        </g>
        <g transform="matrix(0.257985,-0.117028,0.396881,0.874914,3756.23,97.9673)">
            <rect x="2566.67" y="2208.38" width="1672.44" height="627.75" style="fill:none;stroke:rgb(255,253,253);stroke-width:70.6px;stroke-linecap:round;stroke-miterlimit:1.5;"/>
        </g>
        <g transform="matrix(0.746588,0,0,0.746588,452.488,390.922)">
            <text x="1746.17px" y="1899.88px" style="font-family:'Phosphate-Inline', 'Phosphate';font-size:424.475px;fill:rgb(4,3,3);stroke:black;stroke-width:1.34px;">Insurance Pa<tspan x="4374.52px 4623.69px " y="1899.88px 1899.88px ">ys</tspan> 2 to 1</text>
        </g>
        <g transform="matrix(0.283288,0,0,0.960723,2342,-1844.42)">
            <rect x="2566.67" y="2208.38" width="1672.44" height="627.75" style="fill:none;stroke:rgb(255,253,253);stroke-width:70.6px;stroke-linecap:round;stroke-miterlimit:1.5;"/>
        </g>
        <g transform="matrix(0.264097,-0.102492,0.347584,0.895642,2885.77,491.596)">
            <rect x="2566.67" y="2208.38" width="1672.44" height="627.75" style="fill:none;stroke:rgb(255,253,253);stroke-width:70.6px;stroke-linecap:round;stroke-miterlimit:1.5;"/>
        </g>
        <g transform="matrix(0.253258,0.126935,-0.430477,0.858882,1185.59,-680.993)">
            <rect x="2566.67" y="2208.38" width="1672.44" height="627.75" style="fill:none;stroke:rgb(255,253,253);stroke-width:70.6px;stroke-linecap:round;stroke-miterlimit:1.5;"/>
        </g>
    </g>
</svg>
